M48
; DRILL file {KiCad (5.1.9)-1} date 11/04/23 12:21:52
; FORMAT={-:-/ absolute / metric / decimal}
; #@! TF.CreationDate,2023-11-04T12:21:52+01:00
; #@! TF.GenerationSoftware,Kicad,Pcbnew,(5.1.9)-1
; #@! TF.FileFunction,Plated,1,2,PTH
FMAT,2
METRIC
T1C1.000
T2C1.300
%
G90
G05
T1
X133.0Y-74.0
X133.0Y-76.54
X133.0Y-79.08
X133.0Y-81.62
X133.0Y-84.16
X133.0Y-86.7
X133.0Y-89.24
X133.0Y-91.78
X155.86Y-74.0
X155.86Y-76.54
X155.86Y-79.08
X155.86Y-81.62
X155.86Y-84.16
X155.86Y-86.7
X155.86Y-89.24
X155.86Y-91.78
T2
X124.0Y-66.0
X124.0Y-71.0
X124.0Y-76.0
X124.0Y-81.0
X124.0Y-86.0
X124.0Y-91.0
X124.0Y-96.0
X124.0Y-101.0
X165.0Y-66.0
X165.0Y-71.0
X165.0Y-76.0
X165.0Y-81.0
X165.0Y-86.0
X165.0Y-91.0
X165.0Y-96.0
X165.0Y-101.0
T0
M30
