M48
; DRILL file {KiCad (5.1.9)-1} date 10/15/23 15:59:02
; FORMAT={-:-/ absolute / metric / decimal}
; #@! TF.CreationDate,2023-10-15T15:59:02+02:00
; #@! TF.GenerationSoftware,Kicad,Pcbnew,(5.1.9)-1
; #@! TF.FileFunction,Plated,1,2,PTH
FMAT,2
METRIC
T1C0.750
T2C0.800
T3C0.900
T4C1.000
T5C1.200
T6C1.300
%
G90
G05
T1
X168.96Y-78.5
X170.23Y-79.77
X171.5Y-78.5
X186.0Y-71.5
X187.27Y-70.23
X188.54Y-71.5
T2
X156.46Y-104.0
X156.5Y-84.96
X156.5Y-87.5
X156.5Y-94.0
X156.5Y-96.54
X157.0Y-76.5
X159.0Y-104.0
X161.5Y-90.88
X161.5Y-98.5
X162.0Y-64.5
X162.0Y-69.5
X162.0Y-76.5
X162.5Y-85.0
X162.5Y-87.54
X163.0Y-104.0
X164.04Y-90.88
X164.04Y-98.5
X165.54Y-104.0
X166.38Y-64.38
X166.38Y-66.92
X166.38Y-69.46
X166.38Y-72.0
X166.58Y-90.88
X166.58Y-98.5
X171.0Y-93.0
X171.0Y-98.0
X174.0Y-64.38
X174.0Y-66.92
X174.0Y-69.46
X174.0Y-72.0
X181.0Y-65.46
X181.0Y-68.0
X185.46Y-77.5
X188.0Y-77.5
T3
X168.96Y-103.0
X171.5Y-103.0
X178.5Y-76.0
X181.04Y-76.0
T4
X175.45Y-89.45
X187.45Y-89.45
T5
X167.96Y-86.0
X170.5Y-86.0
X179.96Y-82.0
X182.5Y-82.0
T6
X160.5Y-111.0
X165.5Y-111.0
X170.5Y-111.0
X175.45Y-101.65
X176.5Y-111.0
X181.5Y-87.5
X181.5Y-111.0
X186.5Y-111.0
X187.5Y-101.7
T0
M30
