G04 #@! TF.GenerationSoftware,KiCad,Pcbnew,(5.1.9)-1*
G04 #@! TF.CreationDate,2023-10-15T15:57:17+02:00*
G04 #@! TF.ProjectId,Stop if crash,53746f70-2069-4662-9063-726173682e6b,rev?*
G04 #@! TF.SameCoordinates,Original*
G04 #@! TF.FileFunction,Soldermask,Bot*
G04 #@! TF.FilePolarity,Negative*
%FSLAX46Y46*%
G04 Gerber Fmt 4.6, Leading zero omitted, Abs format (unit mm)*
G04 Created by KiCad (PCBNEW (5.1.9)-1) date 2023-10-15 15:57:17*
%MOMM*%
%LPD*%
G01*
G04 APERTURE LIST*
%ADD10C,3.200000*%
%ADD11C,3.000000*%
%ADD12C,2.500000*%
%ADD13O,1.600000X1.600000*%
%ADD14R,1.600000X1.600000*%
%ADD15C,1.600000*%
%ADD16R,1.300000X1.300000*%
%ADD17C,1.300000*%
%ADD18C,2.600000*%
%ADD19R,2.600000X2.600000*%
%ADD20C,1.800000*%
%ADD21R,1.800000X1.800000*%
%ADD22O,2.240000X2.240000*%
%ADD23R,2.240000X2.240000*%
G04 APERTURE END LIST*
D10*
X155500000Y-63500000D03*
X190000000Y-63500000D03*
X190500000Y-118000000D03*
X155500000Y-118000000D03*
D11*
X181500000Y-87500000D03*
D12*
X187450000Y-89450000D03*
D11*
X187500000Y-101700000D03*
X175450000Y-101650000D03*
D12*
X175450000Y-89450000D03*
D13*
X161500000Y-90880000D03*
X166580000Y-98500000D03*
X164040000Y-90880000D03*
X164040000Y-98500000D03*
X166580000Y-90880000D03*
D14*
X161500000Y-98500000D03*
D13*
X166380000Y-72000000D03*
X174000000Y-64380000D03*
X166380000Y-69460000D03*
X174000000Y-66920000D03*
X166380000Y-66920000D03*
X174000000Y-69460000D03*
X166380000Y-64380000D03*
D14*
X174000000Y-72000000D03*
D13*
X181000000Y-65460000D03*
D15*
X181000000Y-68000000D03*
D13*
X165540000Y-104000000D03*
D15*
X163000000Y-104000000D03*
D13*
X159000000Y-104000000D03*
D15*
X156460000Y-104000000D03*
D13*
X162500000Y-87540000D03*
D15*
X162500000Y-85000000D03*
D13*
X156500000Y-94000000D03*
D15*
X156500000Y-96540000D03*
D13*
X185460000Y-77500000D03*
D15*
X188000000Y-77500000D03*
D13*
X156500000Y-84960000D03*
D15*
X156500000Y-87500000D03*
D16*
X186000000Y-71500000D03*
D17*
X188540000Y-71500000D03*
X187270000Y-70230000D03*
D16*
X171500000Y-78500000D03*
D17*
X168960000Y-78500000D03*
X170230000Y-79770000D03*
D18*
X186500000Y-111000000D03*
X181500000Y-111000000D03*
D19*
X176500000Y-111000000D03*
D18*
X170500000Y-111000000D03*
X165500000Y-111000000D03*
D19*
X160500000Y-111000000D03*
D20*
X168960000Y-103000000D03*
D21*
X171500000Y-103000000D03*
D22*
X167960000Y-86000000D03*
D23*
X170500000Y-86000000D03*
D20*
X181040000Y-76000000D03*
D21*
X178500000Y-76000000D03*
D22*
X179960000Y-82000000D03*
D23*
X182500000Y-82000000D03*
D15*
X162000000Y-69500000D03*
X162000000Y-64500000D03*
X162000000Y-76500000D03*
D14*
X157000000Y-76500000D03*
D15*
X171000000Y-98000000D03*
X171000000Y-93000000D03*
M02*
