G04 #@! TF.GenerationSoftware,KiCad,Pcbnew,(5.1.9)-1*
G04 #@! TF.CreationDate,2023-10-15T15:57:16+02:00*
G04 #@! TF.ProjectId,Stop if crash,53746f70-2069-4662-9063-726173682e6b,rev?*
G04 #@! TF.SameCoordinates,Original*
G04 #@! TF.FileFunction,Legend,Top*
G04 #@! TF.FilePolarity,Positive*
%FSLAX46Y46*%
G04 Gerber Fmt 4.6, Leading zero omitted, Abs format (unit mm)*
G04 Created by KiCad (PCBNEW (5.1.9)-1) date 2023-10-15 15:57:16*
%MOMM*%
%LPD*%
G01*
G04 APERTURE LIST*
%ADD10C,0.150000*%
%ADD11C,0.120000*%
G04 APERTURE END LIST*
D10*
X191095238Y-83928571D02*
X191047619Y-84071428D01*
X191047619Y-84309523D01*
X191095238Y-84404761D01*
X191142857Y-84452380D01*
X191238095Y-84500000D01*
X191333333Y-84500000D01*
X191428571Y-84452380D01*
X191476190Y-84404761D01*
X191523809Y-84309523D01*
X191571428Y-84119047D01*
X191619047Y-84023809D01*
X191666666Y-83976190D01*
X191761904Y-83928571D01*
X191857142Y-83928571D01*
X191952380Y-83976190D01*
X192000000Y-84023809D01*
X192047619Y-84119047D01*
X192047619Y-84357142D01*
X192000000Y-84500000D01*
X192047619Y-84785714D02*
X192047619Y-85357142D01*
X191047619Y-85071428D02*
X192047619Y-85071428D01*
X192047619Y-85880952D02*
X192047619Y-86071428D01*
X192000000Y-86166666D01*
X191904761Y-86261904D01*
X191714285Y-86309523D01*
X191380952Y-86309523D01*
X191190476Y-86261904D01*
X191095238Y-86166666D01*
X191047619Y-86071428D01*
X191047619Y-85880952D01*
X191095238Y-85785714D01*
X191190476Y-85690476D01*
X191380952Y-85642857D01*
X191714285Y-85642857D01*
X191904761Y-85690476D01*
X192000000Y-85785714D01*
X192047619Y-85880952D01*
X191047619Y-86738095D02*
X192047619Y-86738095D01*
X192047619Y-87119047D01*
X192000000Y-87214285D01*
X191952380Y-87261904D01*
X191857142Y-87309523D01*
X191714285Y-87309523D01*
X191619047Y-87261904D01*
X191571428Y-87214285D01*
X191523809Y-87119047D01*
X191523809Y-86738095D01*
X191047619Y-88500000D02*
X192047619Y-88500000D01*
X191571428Y-89309523D02*
X191571428Y-88976190D01*
X191047619Y-88976190D02*
X192047619Y-88976190D01*
X192047619Y-89452380D01*
X191142857Y-91166666D02*
X191095238Y-91119047D01*
X191047619Y-90976190D01*
X191047619Y-90880952D01*
X191095238Y-90738095D01*
X191190476Y-90642857D01*
X191285714Y-90595238D01*
X191476190Y-90547619D01*
X191619047Y-90547619D01*
X191809523Y-90595238D01*
X191904761Y-90642857D01*
X192000000Y-90738095D01*
X192047619Y-90880952D01*
X192047619Y-90976190D01*
X192000000Y-91119047D01*
X191952380Y-91166666D01*
X191047619Y-92166666D02*
X191523809Y-91833333D01*
X191047619Y-91595238D02*
X192047619Y-91595238D01*
X192047619Y-91976190D01*
X192000000Y-92071428D01*
X191952380Y-92119047D01*
X191857142Y-92166666D01*
X191714285Y-92166666D01*
X191619047Y-92119047D01*
X191571428Y-92071428D01*
X191523809Y-91976190D01*
X191523809Y-91595238D01*
X191333333Y-92547619D02*
X191333333Y-93023809D01*
X191047619Y-92452380D02*
X192047619Y-92785714D01*
X191047619Y-93119047D01*
X191095238Y-93404761D02*
X191047619Y-93547619D01*
X191047619Y-93785714D01*
X191095238Y-93880952D01*
X191142857Y-93928571D01*
X191238095Y-93976190D01*
X191333333Y-93976190D01*
X191428571Y-93928571D01*
X191476190Y-93880952D01*
X191523809Y-93785714D01*
X191571428Y-93595238D01*
X191619047Y-93499999D01*
X191666666Y-93452380D01*
X191761904Y-93404761D01*
X191857142Y-93404761D01*
X191952380Y-93452380D01*
X192000000Y-93499999D01*
X192047619Y-93595238D01*
X192047619Y-93833333D01*
X192000000Y-93976190D01*
X191047619Y-94404761D02*
X192047619Y-94404761D01*
X191571428Y-94404761D02*
X191571428Y-94976190D01*
X191047619Y-94976190D02*
X192047619Y-94976190D01*
X192047619Y-96071428D02*
X191047619Y-96404761D01*
X192047619Y-96738095D01*
X191142857Y-97071428D02*
X191095238Y-97119047D01*
X191047619Y-97071428D01*
X191095238Y-97023809D01*
X191142857Y-97071428D01*
X191047619Y-97071428D01*
X192047619Y-97738095D02*
X192047619Y-97833333D01*
X192000000Y-97928571D01*
X191952380Y-97976190D01*
X191857142Y-98023809D01*
X191666666Y-98071428D01*
X191428571Y-98071428D01*
X191238095Y-98023809D01*
X191142857Y-97976190D01*
X191095238Y-97928571D01*
X191047619Y-97833333D01*
X191047619Y-97738095D01*
X191095238Y-97642857D01*
X191142857Y-97595238D01*
X191238095Y-97547619D01*
X191428571Y-97499999D01*
X191666666Y-97499999D01*
X191857142Y-97547619D01*
X191952380Y-97595238D01*
X192000000Y-97642857D01*
X192047619Y-97738095D01*
D11*
X183000000Y-119500000D02*
X186500000Y-119500000D01*
X181500000Y-117500000D02*
X183000000Y-119500000D01*
X181500000Y-117500000D02*
X181500000Y-112500000D01*
X186500000Y-119500000D02*
X186500000Y-112500000D01*
X176500000Y-119500000D02*
X180000000Y-119500000D01*
X176500000Y-112500000D02*
X176500000Y-119500000D01*
D10*
X169738095Y-118000000D02*
X169642857Y-117952380D01*
X169500000Y-117952380D01*
X169357142Y-118000000D01*
X169261904Y-118095238D01*
X169214285Y-118190476D01*
X169166666Y-118380952D01*
X169166666Y-118523809D01*
X169214285Y-118714285D01*
X169261904Y-118809523D01*
X169357142Y-118904761D01*
X169500000Y-118952380D01*
X169595238Y-118952380D01*
X169738095Y-118904761D01*
X169785714Y-118857142D01*
X169785714Y-118523809D01*
X169595238Y-118523809D01*
X170214285Y-118952380D02*
X170214285Y-117952380D01*
X170785714Y-118952380D01*
X170785714Y-117952380D01*
X171261904Y-118952380D02*
X171261904Y-117952380D01*
X171500000Y-117952380D01*
X171642857Y-118000000D01*
X171738095Y-118095238D01*
X171785714Y-118190476D01*
X171833333Y-118380952D01*
X171833333Y-118523809D01*
X171785714Y-118714285D01*
X171738095Y-118809523D01*
X171642857Y-118904761D01*
X171500000Y-118952380D01*
X171261904Y-118952380D01*
X164714285Y-118952380D02*
X164714285Y-117952380D01*
X164714285Y-118428571D02*
X165285714Y-118428571D01*
X165285714Y-118952380D02*
X165285714Y-117952380D01*
X166095238Y-118428571D02*
X166238095Y-118476190D01*
X166285714Y-118523809D01*
X166333333Y-118619047D01*
X166333333Y-118761904D01*
X166285714Y-118857142D01*
X166238095Y-118904761D01*
X166142857Y-118952380D01*
X165761904Y-118952380D01*
X165761904Y-117952380D01*
X166095238Y-117952380D01*
X166190476Y-118000000D01*
X166238095Y-118047619D01*
X166285714Y-118142857D01*
X166285714Y-118238095D01*
X166238095Y-118333333D01*
X166190476Y-118380952D01*
X166095238Y-118428571D01*
X165761904Y-118428571D01*
X160309523Y-117952380D02*
X159833333Y-117952380D01*
X159785714Y-118428571D01*
X159833333Y-118380952D01*
X159928571Y-118333333D01*
X160166666Y-118333333D01*
X160261904Y-118380952D01*
X160309523Y-118428571D01*
X160357142Y-118523809D01*
X160357142Y-118761904D01*
X160309523Y-118857142D01*
X160261904Y-118904761D01*
X160166666Y-118952380D01*
X159928571Y-118952380D01*
X159833333Y-118904761D01*
X159785714Y-118857142D01*
X160642857Y-117952380D02*
X160976190Y-118952380D01*
X161309523Y-117952380D01*
D11*
X180300000Y-86100000D02*
X173700000Y-86100000D01*
X189300000Y-86100000D02*
X182700000Y-86100000D01*
X189300000Y-86100000D02*
X189300000Y-105900000D01*
X189300000Y-105900000D02*
X173700000Y-105900000D01*
X173700000Y-105900000D02*
X173700000Y-86100000D01*
X177300000Y-101650000D02*
X179750000Y-101650000D01*
X185700000Y-101650000D02*
X183200000Y-101650000D01*
X175450000Y-91050000D02*
X175450000Y-93550000D01*
X181450000Y-90150000D02*
X181450000Y-89350000D01*
X187450000Y-93550000D02*
X187450000Y-91050000D01*
X181450000Y-96950000D02*
X181450000Y-98450000D01*
X181450000Y-98450000D02*
X183950000Y-103050000D01*
X177850000Y-96950000D02*
X177850000Y-90150000D01*
X181450000Y-96950000D02*
X177850000Y-96950000D01*
X181450000Y-90150000D02*
X177850000Y-90150000D01*
X187450000Y-93550000D02*
X183250000Y-93550000D01*
X179650000Y-93550000D02*
X175450000Y-93550000D01*
X179650000Y-95550000D02*
X183250000Y-91550000D01*
X179650000Y-91550000D02*
X183250000Y-91550000D01*
X183250000Y-91550000D02*
X183250000Y-95550000D01*
X183250000Y-95550000D02*
X179650000Y-95550000D01*
X179650000Y-95550000D02*
X179650000Y-91550000D01*
X160170000Y-92040000D02*
X160170000Y-93690000D01*
X167910000Y-92040000D02*
X160170000Y-92040000D01*
X167910000Y-97340000D02*
X167910000Y-92040000D01*
X160170000Y-97340000D02*
X167910000Y-97340000D01*
X160170000Y-95690000D02*
X160170000Y-97340000D01*
X160170000Y-93690000D02*
G75*
G02*
X160170000Y-95690000I0J-1000000D01*
G01*
X167540000Y-73330000D02*
X169190000Y-73330000D01*
X167540000Y-63050000D02*
X167540000Y-73330000D01*
X172840000Y-63050000D02*
X167540000Y-63050000D01*
X172840000Y-73330000D02*
X172840000Y-63050000D01*
X171190000Y-73330000D02*
X172840000Y-73330000D01*
X169190000Y-73330000D02*
G75*
G02*
X171190000Y-73330000I1000000J0D01*
G01*
X181000000Y-66630000D02*
X181000000Y-66560000D01*
X182370000Y-68000000D02*
G75*
G03*
X182370000Y-68000000I-1370000J0D01*
G01*
X164370000Y-104000000D02*
X164440000Y-104000000D01*
X164370000Y-104000000D02*
G75*
G03*
X164370000Y-104000000I-1370000J0D01*
G01*
X157830000Y-104000000D02*
X157900000Y-104000000D01*
X157830000Y-104000000D02*
G75*
G03*
X157830000Y-104000000I-1370000J0D01*
G01*
X162500000Y-86370000D02*
X162500000Y-86440000D01*
X163870000Y-85000000D02*
G75*
G03*
X163870000Y-85000000I-1370000J0D01*
G01*
X156500000Y-95170000D02*
X156500000Y-95100000D01*
X157870000Y-96540000D02*
G75*
G03*
X157870000Y-96540000I-1370000J0D01*
G01*
X186630000Y-77500000D02*
X186560000Y-77500000D01*
X189370000Y-77500000D02*
G75*
G03*
X189370000Y-77500000I-1370000J0D01*
G01*
X156500000Y-86130000D02*
X156500000Y-86060000D01*
X157870000Y-87500000D02*
G75*
G03*
X157870000Y-87500000I-1370000J0D01*
G01*
X185470000Y-73350000D02*
X189070000Y-73350000D01*
X189108478Y-73338478D02*
G75*
G03*
X187270000Y-68900000I-1838478J1838478D01*
G01*
X185431522Y-73338478D02*
G75*
G02*
X187270000Y-68900000I1838478J1838478D01*
G01*
X172030000Y-76650000D02*
X168430000Y-76650000D01*
X168391522Y-76661522D02*
G75*
G03*
X170230000Y-81100000I1838478J-1838478D01*
G01*
X172068478Y-76661522D02*
G75*
G02*
X170230000Y-81100000I-1838478J-1838478D01*
G01*
X173700000Y-116300000D02*
X174100000Y-116300000D01*
X173700000Y-115660000D02*
X173700000Y-116300000D01*
X185242000Y-111992000D02*
X184847000Y-112388000D01*
X187888000Y-109346000D02*
X187508000Y-109726000D01*
X185493000Y-112274000D02*
X185113000Y-112654000D01*
X188154000Y-109612000D02*
X187759000Y-110008000D01*
X180242000Y-111992000D02*
X179847000Y-112388000D01*
X182888000Y-109346000D02*
X182508000Y-109726000D01*
X180493000Y-112274000D02*
X180113000Y-112654000D01*
X183154000Y-109612000D02*
X182759000Y-110008000D01*
X174952000Y-112281000D02*
X174846000Y-112388000D01*
X177888000Y-109346000D02*
X177781000Y-109453000D01*
X175218000Y-112547000D02*
X175112000Y-112654000D01*
X178154000Y-109612000D02*
X178047000Y-109719000D01*
X189060000Y-106940000D02*
X189060000Y-116060000D01*
X173940000Y-106940000D02*
X173940000Y-116060000D01*
X173940000Y-116060000D02*
X189060000Y-116060000D01*
X173940000Y-106940000D02*
X189060000Y-106940000D01*
X173940000Y-114500000D02*
X189060000Y-114500000D01*
X173940000Y-115600000D02*
X189060000Y-115600000D01*
X188680000Y-111000000D02*
G75*
G03*
X188680000Y-111000000I-2180000J0D01*
G01*
X183680000Y-111000000D02*
G75*
G03*
X183680000Y-111000000I-2180000J0D01*
G01*
X178680000Y-111000000D02*
G75*
G03*
X178680000Y-111000000I-2180000J0D01*
G01*
X157700000Y-116300000D02*
X158100000Y-116300000D01*
X157700000Y-115660000D02*
X157700000Y-116300000D01*
X169242000Y-111992000D02*
X168847000Y-112388000D01*
X171888000Y-109346000D02*
X171508000Y-109726000D01*
X169493000Y-112274000D02*
X169113000Y-112654000D01*
X172154000Y-109612000D02*
X171759000Y-110008000D01*
X164242000Y-111992000D02*
X163847000Y-112388000D01*
X166888000Y-109346000D02*
X166508000Y-109726000D01*
X164493000Y-112274000D02*
X164113000Y-112654000D01*
X167154000Y-109612000D02*
X166759000Y-110008000D01*
X158952000Y-112281000D02*
X158846000Y-112388000D01*
X161888000Y-109346000D02*
X161781000Y-109453000D01*
X159218000Y-112547000D02*
X159112000Y-112654000D01*
X162154000Y-109612000D02*
X162047000Y-109719000D01*
X173060000Y-106940000D02*
X173060000Y-116060000D01*
X157940000Y-106940000D02*
X157940000Y-116060000D01*
X157940000Y-116060000D02*
X173060000Y-116060000D01*
X157940000Y-106940000D02*
X173060000Y-106940000D01*
X157940000Y-114500000D02*
X173060000Y-114500000D01*
X157940000Y-115600000D02*
X173060000Y-115600000D01*
X172680000Y-111000000D02*
G75*
G03*
X172680000Y-111000000I-2180000J0D01*
G01*
X167680000Y-111000000D02*
G75*
G03*
X167680000Y-111000000I-2180000J0D01*
G01*
X162680000Y-111000000D02*
G75*
G03*
X162680000Y-111000000I-2180000J0D01*
G01*
X171790000Y-101920000D02*
X171790000Y-101764000D01*
X171790000Y-104236000D02*
X171790000Y-104080000D01*
X169188870Y-101920163D02*
G75*
G02*
X171270961Y-101920000I1041130J-1079837D01*
G01*
X169188870Y-104079837D02*
G75*
G03*
X171270961Y-104080000I1041130J1079837D01*
G01*
X168557665Y-101921392D02*
G75*
G02*
X171790000Y-101764484I1672335J-1078608D01*
G01*
X168557665Y-104078608D02*
G75*
G03*
X171790000Y-104235516I1672335J1078608D01*
G01*
X169043629Y-84805268D02*
G75*
G02*
X168985404Y-87120000I1456371J-1194732D01*
G01*
X178210000Y-77080000D02*
X178210000Y-77236000D01*
X178210000Y-74764000D02*
X178210000Y-74920000D01*
X180811130Y-77079837D02*
G75*
G02*
X178729039Y-77080000I-1041130J1079837D01*
G01*
X180811130Y-74920163D02*
G75*
G03*
X178729039Y-74920000I-1041130J-1079837D01*
G01*
X181442335Y-77078608D02*
G75*
G02*
X178210000Y-77235516I-1672335J1078608D01*
G01*
X181442335Y-74921392D02*
G75*
G03*
X178210000Y-74764484I-1672335J-1078608D01*
G01*
X181043629Y-80805268D02*
G75*
G02*
X180985404Y-83120000I1456371J-1194732D01*
G01*
X160945000Y-69270000D02*
X160930000Y-69270000D01*
X163070000Y-69270000D02*
X163055000Y-69270000D01*
X160945000Y-64730000D02*
X160930000Y-64730000D01*
X163070000Y-64730000D02*
X163055000Y-64730000D01*
X160930000Y-64730000D02*
X160930000Y-69270000D01*
X163070000Y-64730000D02*
X163070000Y-69270000D01*
X155490302Y-73785000D02*
X155490302Y-74585000D01*
X155090302Y-74185000D02*
X155890302Y-74185000D01*
X163581000Y-75967000D02*
X163581000Y-77033000D01*
X163541000Y-75732000D02*
X163541000Y-77268000D01*
X163501000Y-75552000D02*
X163501000Y-77448000D01*
X163461000Y-75402000D02*
X163461000Y-77598000D01*
X163421000Y-75271000D02*
X163421000Y-77729000D01*
X163381000Y-75154000D02*
X163381000Y-77846000D01*
X163341000Y-75047000D02*
X163341000Y-77953000D01*
X163301000Y-74948000D02*
X163301000Y-78052000D01*
X163261000Y-74855000D02*
X163261000Y-78145000D01*
X163221000Y-74769000D02*
X163221000Y-78231000D01*
X163181000Y-74687000D02*
X163181000Y-78313000D01*
X163141000Y-74610000D02*
X163141000Y-78390000D01*
X163101000Y-74536000D02*
X163101000Y-78464000D01*
X163061000Y-74466000D02*
X163061000Y-78534000D01*
X163021000Y-77540000D02*
X163021000Y-78602000D01*
X163021000Y-74398000D02*
X163021000Y-75460000D01*
X162981000Y-77540000D02*
X162981000Y-78666000D01*
X162981000Y-74334000D02*
X162981000Y-75460000D01*
X162941000Y-77540000D02*
X162941000Y-78728000D01*
X162941000Y-74272000D02*
X162941000Y-75460000D01*
X162901000Y-77540000D02*
X162901000Y-78787000D01*
X162901000Y-74213000D02*
X162901000Y-75460000D01*
X162861000Y-77540000D02*
X162861000Y-78845000D01*
X162861000Y-74155000D02*
X162861000Y-75460000D01*
X162821000Y-77540000D02*
X162821000Y-78900000D01*
X162821000Y-74100000D02*
X162821000Y-75460000D01*
X162781000Y-77540000D02*
X162781000Y-78954000D01*
X162781000Y-74046000D02*
X162781000Y-75460000D01*
X162741000Y-77540000D02*
X162741000Y-79005000D01*
X162741000Y-73995000D02*
X162741000Y-75460000D01*
X162701000Y-77540000D02*
X162701000Y-79056000D01*
X162701000Y-73944000D02*
X162701000Y-75460000D01*
X162661000Y-77540000D02*
X162661000Y-79104000D01*
X162661000Y-73896000D02*
X162661000Y-75460000D01*
X162621000Y-77540000D02*
X162621000Y-79151000D01*
X162621000Y-73849000D02*
X162621000Y-75460000D01*
X162581000Y-77540000D02*
X162581000Y-79197000D01*
X162581000Y-73803000D02*
X162581000Y-75460000D01*
X162541000Y-77540000D02*
X162541000Y-79241000D01*
X162541000Y-73759000D02*
X162541000Y-75460000D01*
X162501000Y-77540000D02*
X162501000Y-79284000D01*
X162501000Y-73716000D02*
X162501000Y-75460000D01*
X162461000Y-77540000D02*
X162461000Y-79326000D01*
X162461000Y-73674000D02*
X162461000Y-75460000D01*
X162421000Y-77540000D02*
X162421000Y-79367000D01*
X162421000Y-73633000D02*
X162421000Y-75460000D01*
X162381000Y-77540000D02*
X162381000Y-79407000D01*
X162381000Y-73593000D02*
X162381000Y-75460000D01*
X162341000Y-77540000D02*
X162341000Y-79445000D01*
X162341000Y-73555000D02*
X162341000Y-75460000D01*
X162301000Y-77540000D02*
X162301000Y-79483000D01*
X162301000Y-73517000D02*
X162301000Y-75460000D01*
X162261000Y-77540000D02*
X162261000Y-79519000D01*
X162261000Y-73481000D02*
X162261000Y-75460000D01*
X162221000Y-77540000D02*
X162221000Y-79555000D01*
X162221000Y-73445000D02*
X162221000Y-75460000D01*
X162181000Y-77540000D02*
X162181000Y-79590000D01*
X162181000Y-73410000D02*
X162181000Y-75460000D01*
X162141000Y-77540000D02*
X162141000Y-79624000D01*
X162141000Y-73376000D02*
X162141000Y-75460000D01*
X162101000Y-77540000D02*
X162101000Y-79656000D01*
X162101000Y-73344000D02*
X162101000Y-75460000D01*
X162061000Y-77540000D02*
X162061000Y-79689000D01*
X162061000Y-73311000D02*
X162061000Y-75460000D01*
X162021000Y-77540000D02*
X162021000Y-79720000D01*
X162021000Y-73280000D02*
X162021000Y-75460000D01*
X161981000Y-77540000D02*
X161981000Y-79750000D01*
X161981000Y-73250000D02*
X161981000Y-75460000D01*
X161941000Y-77540000D02*
X161941000Y-79780000D01*
X161941000Y-73220000D02*
X161941000Y-75460000D01*
X161901000Y-77540000D02*
X161901000Y-79809000D01*
X161901000Y-73191000D02*
X161901000Y-75460000D01*
X161861000Y-77540000D02*
X161861000Y-79838000D01*
X161861000Y-73162000D02*
X161861000Y-75460000D01*
X161821000Y-77540000D02*
X161821000Y-79865000D01*
X161821000Y-73135000D02*
X161821000Y-75460000D01*
X161781000Y-77540000D02*
X161781000Y-79892000D01*
X161781000Y-73108000D02*
X161781000Y-75460000D01*
X161741000Y-77540000D02*
X161741000Y-79918000D01*
X161741000Y-73082000D02*
X161741000Y-75460000D01*
X161701000Y-77540000D02*
X161701000Y-79944000D01*
X161701000Y-73056000D02*
X161701000Y-75460000D01*
X161661000Y-77540000D02*
X161661000Y-79969000D01*
X161661000Y-73031000D02*
X161661000Y-75460000D01*
X161621000Y-77540000D02*
X161621000Y-79993000D01*
X161621000Y-73007000D02*
X161621000Y-75460000D01*
X161581000Y-77540000D02*
X161581000Y-80017000D01*
X161581000Y-72983000D02*
X161581000Y-75460000D01*
X161541000Y-77540000D02*
X161541000Y-80040000D01*
X161541000Y-72960000D02*
X161541000Y-75460000D01*
X161501000Y-77540000D02*
X161501000Y-80062000D01*
X161501000Y-72938000D02*
X161501000Y-75460000D01*
X161461000Y-77540000D02*
X161461000Y-80084000D01*
X161461000Y-72916000D02*
X161461000Y-75460000D01*
X161421000Y-77540000D02*
X161421000Y-80106000D01*
X161421000Y-72894000D02*
X161421000Y-75460000D01*
X161381000Y-77540000D02*
X161381000Y-80127000D01*
X161381000Y-72873000D02*
X161381000Y-75460000D01*
X161341000Y-77540000D02*
X161341000Y-80147000D01*
X161341000Y-72853000D02*
X161341000Y-75460000D01*
X161301000Y-77540000D02*
X161301000Y-80166000D01*
X161301000Y-72834000D02*
X161301000Y-75460000D01*
X161261000Y-77540000D02*
X161261000Y-80186000D01*
X161261000Y-72814000D02*
X161261000Y-75460000D01*
X161221000Y-77540000D02*
X161221000Y-80204000D01*
X161221000Y-72796000D02*
X161221000Y-75460000D01*
X161181000Y-77540000D02*
X161181000Y-80222000D01*
X161181000Y-72778000D02*
X161181000Y-75460000D01*
X161141000Y-77540000D02*
X161141000Y-80240000D01*
X161141000Y-72760000D02*
X161141000Y-75460000D01*
X161101000Y-77540000D02*
X161101000Y-80257000D01*
X161101000Y-72743000D02*
X161101000Y-75460000D01*
X161061000Y-77540000D02*
X161061000Y-80274000D01*
X161061000Y-72726000D02*
X161061000Y-75460000D01*
X161021000Y-77540000D02*
X161021000Y-80290000D01*
X161021000Y-72710000D02*
X161021000Y-75460000D01*
X160981000Y-77540000D02*
X160981000Y-80305000D01*
X160981000Y-72695000D02*
X160981000Y-75460000D01*
X160941000Y-72679000D02*
X160941000Y-80321000D01*
X160901000Y-72665000D02*
X160901000Y-80335000D01*
X160861000Y-72650000D02*
X160861000Y-80350000D01*
X160821000Y-72637000D02*
X160821000Y-80363000D01*
X160781000Y-72623000D02*
X160781000Y-80377000D01*
X160741000Y-72611000D02*
X160741000Y-80389000D01*
X160701000Y-72598000D02*
X160701000Y-80402000D01*
X160661000Y-72586000D02*
X160661000Y-80414000D01*
X160621000Y-72575000D02*
X160621000Y-80425000D01*
X160581000Y-72564000D02*
X160581000Y-80436000D01*
X160541000Y-72553000D02*
X160541000Y-80447000D01*
X160501000Y-72543000D02*
X160501000Y-80457000D01*
X160461000Y-72533000D02*
X160461000Y-80467000D01*
X160421000Y-72524000D02*
X160421000Y-80476000D01*
X160381000Y-72515000D02*
X160381000Y-80485000D01*
X160341000Y-72506000D02*
X160341000Y-80494000D01*
X160301000Y-72498000D02*
X160301000Y-80502000D01*
X160261000Y-72490000D02*
X160261000Y-80510000D01*
X160221000Y-72483000D02*
X160221000Y-80517000D01*
X160180000Y-72476000D02*
X160180000Y-80524000D01*
X160140000Y-72470000D02*
X160140000Y-80530000D01*
X160100000Y-72463000D02*
X160100000Y-80537000D01*
X160060000Y-72458000D02*
X160060000Y-80542000D01*
X160020000Y-72452000D02*
X160020000Y-80548000D01*
X159980000Y-72448000D02*
X159980000Y-80552000D01*
X159940000Y-72443000D02*
X159940000Y-80557000D01*
X159900000Y-72439000D02*
X159900000Y-80561000D01*
X159860000Y-72435000D02*
X159860000Y-80565000D01*
X159820000Y-72432000D02*
X159820000Y-80568000D01*
X159780000Y-72429000D02*
X159780000Y-80571000D01*
X159740000Y-72426000D02*
X159740000Y-80574000D01*
X159700000Y-72424000D02*
X159700000Y-80576000D01*
X159660000Y-72423000D02*
X159660000Y-80577000D01*
X159620000Y-72421000D02*
X159620000Y-80579000D01*
X159580000Y-72420000D02*
X159580000Y-80580000D01*
X159540000Y-72420000D02*
X159540000Y-80580000D01*
X159500000Y-72420000D02*
X159500000Y-80580000D01*
X163620000Y-76500000D02*
G75*
G03*
X163620000Y-76500000I-4120000J0D01*
G01*
X169945000Y-97770000D02*
X169930000Y-97770000D01*
X172070000Y-97770000D02*
X172055000Y-97770000D01*
X169945000Y-93230000D02*
X169930000Y-93230000D01*
X172070000Y-93230000D02*
X172055000Y-93230000D01*
X169930000Y-93230000D02*
X169930000Y-97770000D01*
X172070000Y-93230000D02*
X172070000Y-97770000D01*
D10*
X154738095Y-59752380D02*
X154738095Y-58752380D01*
X154738095Y-59228571D02*
X155309523Y-59228571D01*
X155309523Y-59752380D02*
X155309523Y-58752380D01*
X156214285Y-59085714D02*
X156214285Y-59752380D01*
X155976190Y-58704761D02*
X155738095Y-59419047D01*
X156357142Y-59419047D01*
X189238095Y-59752380D02*
X189238095Y-58752380D01*
X189238095Y-59228571D02*
X189809523Y-59228571D01*
X189809523Y-59752380D02*
X189809523Y-58752380D01*
X190190476Y-58752380D02*
X190809523Y-58752380D01*
X190476190Y-59133333D01*
X190619047Y-59133333D01*
X190714285Y-59180952D01*
X190761904Y-59228571D01*
X190809523Y-59323809D01*
X190809523Y-59561904D01*
X190761904Y-59657142D01*
X190714285Y-59704761D01*
X190619047Y-59752380D01*
X190333333Y-59752380D01*
X190238095Y-59704761D01*
X190190476Y-59657142D01*
X189738095Y-118452380D02*
X189738095Y-117452380D01*
X189738095Y-117928571D02*
X190309523Y-117928571D01*
X190309523Y-118452380D02*
X190309523Y-117452380D01*
X190738095Y-117547619D02*
X190785714Y-117500000D01*
X190880952Y-117452380D01*
X191119047Y-117452380D01*
X191214285Y-117500000D01*
X191261904Y-117547619D01*
X191309523Y-117642857D01*
X191309523Y-117738095D01*
X191261904Y-117880952D01*
X190690476Y-118452380D01*
X191309523Y-118452380D01*
X154738095Y-118452380D02*
X154738095Y-117452380D01*
X154738095Y-117928571D02*
X155309523Y-117928571D01*
X155309523Y-118452380D02*
X155309523Y-117452380D01*
X156309523Y-118452380D02*
X155738095Y-118452380D01*
X156023809Y-118452380D02*
X156023809Y-117452380D01*
X155928571Y-117595238D01*
X155833333Y-117690476D01*
X155738095Y-117738095D01*
X172952380Y-90738095D02*
X171952380Y-90738095D01*
X172952380Y-90166666D02*
X172380952Y-90595238D01*
X171952380Y-90166666D02*
X172523809Y-90738095D01*
X172952380Y-89214285D02*
X172952380Y-89785714D01*
X172952380Y-89500000D02*
X171952380Y-89500000D01*
X172095238Y-89595238D01*
X172190476Y-89690476D01*
X172238095Y-89785714D01*
X158622380Y-95451904D02*
X159431904Y-95451904D01*
X159527142Y-95404285D01*
X159574761Y-95356666D01*
X159622380Y-95261428D01*
X159622380Y-95070952D01*
X159574761Y-94975714D01*
X159527142Y-94928095D01*
X159431904Y-94880476D01*
X158622380Y-94880476D01*
X158717619Y-94451904D02*
X158670000Y-94404285D01*
X158622380Y-94309047D01*
X158622380Y-94070952D01*
X158670000Y-93975714D01*
X158717619Y-93928095D01*
X158812857Y-93880476D01*
X158908095Y-93880476D01*
X159050952Y-93928095D01*
X159622380Y-94499523D01*
X159622380Y-93880476D01*
X169428095Y-73782380D02*
X169428095Y-74591904D01*
X169475714Y-74687142D01*
X169523333Y-74734761D01*
X169618571Y-74782380D01*
X169809047Y-74782380D01*
X169904285Y-74734761D01*
X169951904Y-74687142D01*
X169999523Y-74591904D01*
X169999523Y-73782380D01*
X170999523Y-74782380D02*
X170428095Y-74782380D01*
X170713809Y-74782380D02*
X170713809Y-73782380D01*
X170618571Y-73925238D01*
X170523333Y-74020476D01*
X170428095Y-74068095D01*
X179082380Y-66896666D02*
X178606190Y-67230000D01*
X179082380Y-67468095D02*
X178082380Y-67468095D01*
X178082380Y-67087142D01*
X178130000Y-66991904D01*
X178177619Y-66944285D01*
X178272857Y-66896666D01*
X178415714Y-66896666D01*
X178510952Y-66944285D01*
X178558571Y-66991904D01*
X178606190Y-67087142D01*
X178606190Y-67468095D01*
X178082380Y-66563333D02*
X178082380Y-65896666D01*
X179082380Y-66325238D01*
X164103333Y-102082380D02*
X163770000Y-101606190D01*
X163531904Y-102082380D02*
X163531904Y-101082380D01*
X163912857Y-101082380D01*
X164008095Y-101130000D01*
X164055714Y-101177619D01*
X164103333Y-101272857D01*
X164103333Y-101415714D01*
X164055714Y-101510952D01*
X164008095Y-101558571D01*
X163912857Y-101606190D01*
X163531904Y-101606190D01*
X164960476Y-101082380D02*
X164770000Y-101082380D01*
X164674761Y-101130000D01*
X164627142Y-101177619D01*
X164531904Y-101320476D01*
X164484285Y-101510952D01*
X164484285Y-101891904D01*
X164531904Y-101987142D01*
X164579523Y-102034761D01*
X164674761Y-102082380D01*
X164865238Y-102082380D01*
X164960476Y-102034761D01*
X165008095Y-101987142D01*
X165055714Y-101891904D01*
X165055714Y-101653809D01*
X165008095Y-101558571D01*
X164960476Y-101510952D01*
X164865238Y-101463333D01*
X164674761Y-101463333D01*
X164579523Y-101510952D01*
X164531904Y-101558571D01*
X164484285Y-101653809D01*
X157563333Y-102082380D02*
X157230000Y-101606190D01*
X156991904Y-102082380D02*
X156991904Y-101082380D01*
X157372857Y-101082380D01*
X157468095Y-101130000D01*
X157515714Y-101177619D01*
X157563333Y-101272857D01*
X157563333Y-101415714D01*
X157515714Y-101510952D01*
X157468095Y-101558571D01*
X157372857Y-101606190D01*
X156991904Y-101606190D01*
X158468095Y-101082380D02*
X157991904Y-101082380D01*
X157944285Y-101558571D01*
X157991904Y-101510952D01*
X158087142Y-101463333D01*
X158325238Y-101463333D01*
X158420476Y-101510952D01*
X158468095Y-101558571D01*
X158515714Y-101653809D01*
X158515714Y-101891904D01*
X158468095Y-101987142D01*
X158420476Y-102034761D01*
X158325238Y-102082380D01*
X158087142Y-102082380D01*
X157991904Y-102034761D01*
X157944285Y-101987142D01*
X165322380Y-86436666D02*
X164846190Y-86770000D01*
X165322380Y-87008095D02*
X164322380Y-87008095D01*
X164322380Y-86627142D01*
X164370000Y-86531904D01*
X164417619Y-86484285D01*
X164512857Y-86436666D01*
X164655714Y-86436666D01*
X164750952Y-86484285D01*
X164798571Y-86531904D01*
X164846190Y-86627142D01*
X164846190Y-87008095D01*
X164655714Y-85579523D02*
X165322380Y-85579523D01*
X164274761Y-85817619D02*
X164989047Y-86055714D01*
X164989047Y-85436666D01*
X154582380Y-95436666D02*
X154106190Y-95770000D01*
X154582380Y-96008095D02*
X153582380Y-96008095D01*
X153582380Y-95627142D01*
X153630000Y-95531904D01*
X153677619Y-95484285D01*
X153772857Y-95436666D01*
X153915714Y-95436666D01*
X154010952Y-95484285D01*
X154058571Y-95531904D01*
X154106190Y-95627142D01*
X154106190Y-96008095D01*
X153582380Y-95103333D02*
X153582380Y-94484285D01*
X153963333Y-94817619D01*
X153963333Y-94674761D01*
X154010952Y-94579523D01*
X154058571Y-94531904D01*
X154153809Y-94484285D01*
X154391904Y-94484285D01*
X154487142Y-94531904D01*
X154534761Y-94579523D01*
X154582380Y-94674761D01*
X154582380Y-94960476D01*
X154534761Y-95055714D01*
X154487142Y-95103333D01*
X186563333Y-80322380D02*
X186230000Y-79846190D01*
X185991904Y-80322380D02*
X185991904Y-79322380D01*
X186372857Y-79322380D01*
X186468095Y-79370000D01*
X186515714Y-79417619D01*
X186563333Y-79512857D01*
X186563333Y-79655714D01*
X186515714Y-79750952D01*
X186468095Y-79798571D01*
X186372857Y-79846190D01*
X185991904Y-79846190D01*
X186944285Y-79417619D02*
X186991904Y-79370000D01*
X187087142Y-79322380D01*
X187325238Y-79322380D01*
X187420476Y-79370000D01*
X187468095Y-79417619D01*
X187515714Y-79512857D01*
X187515714Y-79608095D01*
X187468095Y-79750952D01*
X186896666Y-80322380D01*
X187515714Y-80322380D01*
X154582380Y-86396666D02*
X154106190Y-86730000D01*
X154582380Y-86968095D02*
X153582380Y-86968095D01*
X153582380Y-86587142D01*
X153630000Y-86491904D01*
X153677619Y-86444285D01*
X153772857Y-86396666D01*
X153915714Y-86396666D01*
X154010952Y-86444285D01*
X154058571Y-86491904D01*
X154106190Y-86587142D01*
X154106190Y-86968095D01*
X154582380Y-85444285D02*
X154582380Y-86015714D01*
X154582380Y-85730000D02*
X153582380Y-85730000D01*
X153725238Y-85825238D01*
X153820476Y-85920476D01*
X153868095Y-86015714D01*
X187174761Y-68487619D02*
X187079523Y-68440000D01*
X186984285Y-68344761D01*
X186841428Y-68201904D01*
X186746190Y-68154285D01*
X186650952Y-68154285D01*
X186698571Y-68392380D02*
X186603333Y-68344761D01*
X186508095Y-68249523D01*
X186460476Y-68059047D01*
X186460476Y-67725714D01*
X186508095Y-67535238D01*
X186603333Y-67440000D01*
X186698571Y-67392380D01*
X186889047Y-67392380D01*
X186984285Y-67440000D01*
X187079523Y-67535238D01*
X187127142Y-67725714D01*
X187127142Y-68059047D01*
X187079523Y-68249523D01*
X186984285Y-68344761D01*
X186889047Y-68392380D01*
X186698571Y-68392380D01*
X187508095Y-67487619D02*
X187555714Y-67440000D01*
X187650952Y-67392380D01*
X187889047Y-67392380D01*
X187984285Y-67440000D01*
X188031904Y-67487619D01*
X188079523Y-67582857D01*
X188079523Y-67678095D01*
X188031904Y-67820952D01*
X187460476Y-68392380D01*
X188079523Y-68392380D01*
X170134761Y-82607619D02*
X170039523Y-82560000D01*
X169944285Y-82464761D01*
X169801428Y-82321904D01*
X169706190Y-82274285D01*
X169610952Y-82274285D01*
X169658571Y-82512380D02*
X169563333Y-82464761D01*
X169468095Y-82369523D01*
X169420476Y-82179047D01*
X169420476Y-81845714D01*
X169468095Y-81655238D01*
X169563333Y-81560000D01*
X169658571Y-81512380D01*
X169849047Y-81512380D01*
X169944285Y-81560000D01*
X170039523Y-81655238D01*
X170087142Y-81845714D01*
X170087142Y-82179047D01*
X170039523Y-82369523D01*
X169944285Y-82464761D01*
X169849047Y-82512380D01*
X169658571Y-82512380D01*
X171039523Y-82512380D02*
X170468095Y-82512380D01*
X170753809Y-82512380D02*
X170753809Y-81512380D01*
X170658571Y-81655238D01*
X170563333Y-81750476D01*
X170468095Y-81798095D01*
X190666666Y-111952380D02*
X190666666Y-112666666D01*
X190619047Y-112809523D01*
X190523809Y-112904761D01*
X190380952Y-112952380D01*
X190285714Y-112952380D01*
X191095238Y-112047619D02*
X191142857Y-112000000D01*
X191238095Y-111952380D01*
X191476190Y-111952380D01*
X191571428Y-112000000D01*
X191619047Y-112047619D01*
X191666666Y-112142857D01*
X191666666Y-112238095D01*
X191619047Y-112380952D01*
X191047619Y-112952380D01*
X191666666Y-112952380D01*
X155666666Y-111952380D02*
X155666666Y-112666666D01*
X155619047Y-112809523D01*
X155523809Y-112904761D01*
X155380952Y-112952380D01*
X155285714Y-112952380D01*
X156666666Y-112952380D02*
X156095238Y-112952380D01*
X156380952Y-112952380D02*
X156380952Y-111952380D01*
X156285714Y-112095238D01*
X156190476Y-112190476D01*
X156095238Y-112238095D01*
X169491904Y-106412380D02*
X169491904Y-105412380D01*
X169730000Y-105412380D01*
X169872857Y-105460000D01*
X169968095Y-105555238D01*
X170015714Y-105650476D01*
X170063333Y-105840952D01*
X170063333Y-105983809D01*
X170015714Y-106174285D01*
X169968095Y-106269523D01*
X169872857Y-106364761D01*
X169730000Y-106412380D01*
X169491904Y-106412380D01*
X170920476Y-105745714D02*
X170920476Y-106412380D01*
X170682380Y-105364761D02*
X170444285Y-106079047D01*
X171063333Y-106079047D01*
X168491904Y-89372380D02*
X168491904Y-88372380D01*
X168730000Y-88372380D01*
X168872857Y-88420000D01*
X168968095Y-88515238D01*
X169015714Y-88610476D01*
X169063333Y-88800952D01*
X169063333Y-88943809D01*
X169015714Y-89134285D01*
X168968095Y-89229523D01*
X168872857Y-89324761D01*
X168730000Y-89372380D01*
X168491904Y-89372380D01*
X169396666Y-88372380D02*
X170015714Y-88372380D01*
X169682380Y-88753333D01*
X169825238Y-88753333D01*
X169920476Y-88800952D01*
X169968095Y-88848571D01*
X170015714Y-88943809D01*
X170015714Y-89181904D01*
X169968095Y-89277142D01*
X169920476Y-89324761D01*
X169825238Y-89372380D01*
X169539523Y-89372380D01*
X169444285Y-89324761D01*
X169396666Y-89277142D01*
X165601904Y-86166666D02*
X166078095Y-86166666D01*
X165506666Y-86452380D02*
X165840000Y-85452380D01*
X166173333Y-86452380D01*
X179031904Y-73492380D02*
X179031904Y-72492380D01*
X179270000Y-72492380D01*
X179412857Y-72540000D01*
X179508095Y-72635238D01*
X179555714Y-72730476D01*
X179603333Y-72920952D01*
X179603333Y-73063809D01*
X179555714Y-73254285D01*
X179508095Y-73349523D01*
X179412857Y-73444761D01*
X179270000Y-73492380D01*
X179031904Y-73492380D01*
X179984285Y-72587619D02*
X180031904Y-72540000D01*
X180127142Y-72492380D01*
X180365238Y-72492380D01*
X180460476Y-72540000D01*
X180508095Y-72587619D01*
X180555714Y-72682857D01*
X180555714Y-72778095D01*
X180508095Y-72920952D01*
X179936666Y-73492380D01*
X180555714Y-73492380D01*
X180491904Y-85372380D02*
X180491904Y-84372380D01*
X180730000Y-84372380D01*
X180872857Y-84420000D01*
X180968095Y-84515238D01*
X181015714Y-84610476D01*
X181063333Y-84800952D01*
X181063333Y-84943809D01*
X181015714Y-85134285D01*
X180968095Y-85229523D01*
X180872857Y-85324761D01*
X180730000Y-85372380D01*
X180491904Y-85372380D01*
X182015714Y-85372380D02*
X181444285Y-85372380D01*
X181730000Y-85372380D02*
X181730000Y-84372380D01*
X181634761Y-84515238D01*
X181539523Y-84610476D01*
X181444285Y-84658095D01*
X177601904Y-82166666D02*
X178078095Y-82166666D01*
X177506666Y-82452380D02*
X177840000Y-81452380D01*
X178173333Y-82452380D01*
X164557142Y-67166666D02*
X164604761Y-67214285D01*
X164652380Y-67357142D01*
X164652380Y-67452380D01*
X164604761Y-67595238D01*
X164509523Y-67690476D01*
X164414285Y-67738095D01*
X164223809Y-67785714D01*
X164080952Y-67785714D01*
X163890476Y-67738095D01*
X163795238Y-67690476D01*
X163700000Y-67595238D01*
X163652380Y-67452380D01*
X163652380Y-67357142D01*
X163700000Y-67214285D01*
X163747619Y-67166666D01*
X163652380Y-66833333D02*
X163652380Y-66214285D01*
X164033333Y-66547619D01*
X164033333Y-66404761D01*
X164080952Y-66309523D01*
X164128571Y-66261904D01*
X164223809Y-66214285D01*
X164461904Y-66214285D01*
X164557142Y-66261904D01*
X164604761Y-66309523D01*
X164652380Y-66404761D01*
X164652380Y-66690476D01*
X164604761Y-66785714D01*
X164557142Y-66833333D01*
X159333333Y-71607142D02*
X159285714Y-71654761D01*
X159142857Y-71702380D01*
X159047619Y-71702380D01*
X158904761Y-71654761D01*
X158809523Y-71559523D01*
X158761904Y-71464285D01*
X158714285Y-71273809D01*
X158714285Y-71130952D01*
X158761904Y-70940476D01*
X158809523Y-70845238D01*
X158904761Y-70750000D01*
X159047619Y-70702380D01*
X159142857Y-70702380D01*
X159285714Y-70750000D01*
X159333333Y-70797619D01*
X159714285Y-70797619D02*
X159761904Y-70750000D01*
X159857142Y-70702380D01*
X160095238Y-70702380D01*
X160190476Y-70750000D01*
X160238095Y-70797619D01*
X160285714Y-70892857D01*
X160285714Y-70988095D01*
X160238095Y-71130952D01*
X159666666Y-71702380D01*
X160285714Y-71702380D01*
X169357142Y-94166666D02*
X169404761Y-94214285D01*
X169452380Y-94357142D01*
X169452380Y-94452380D01*
X169404761Y-94595238D01*
X169309523Y-94690476D01*
X169214285Y-94738095D01*
X169023809Y-94785714D01*
X168880952Y-94785714D01*
X168690476Y-94738095D01*
X168595238Y-94690476D01*
X168500000Y-94595238D01*
X168452380Y-94452380D01*
X168452380Y-94357142D01*
X168500000Y-94214285D01*
X168547619Y-94166666D01*
X169452380Y-93214285D02*
X169452380Y-93785714D01*
X169452380Y-93500000D02*
X168452380Y-93500000D01*
X168595238Y-93595238D01*
X168690476Y-93690476D01*
X168738095Y-93785714D01*
M02*
